# xmcd
#
# Track frame offsets:
#	150
#	13170
#	26625
#	38213
#	53672
#	66387
#	85046
#	95450
#	108798
#	122201
#	133717
#	147821
#	157794
#	176313
#	189016
#	199380
#
# Disc length: 2853 seconds
#
# Revision: 1
# Processed by: cddbd v1.5.1PL0 Copyright (c) Steve Scherf et al.
# Submitted via: audiograbber 1.83.01
#
DISCID=cd0b2310
DTITLE=Kimmel, Dick and Co - My Lord Keeps A Record
DYEAR=2005
DGENRE=Bluegrass
TTITLE0=My Lord Keeps A Record
TTITLE1=Jesus Is All That I Need
TTITLE2='Till The Answer Comes
TTITLE3=Door To Door In Heaven
TTITLE4=Ain't Gonna Lay My Armor Down
TTITLE5=Tramp On The Street
TTITLE6=Swing Low, Sweet Chariot
TTITLE7=Go Home
TTITLE8=Don't You Hear Jeruselem Mourn
TTITLE9=When I Get Home
TTITLE10=Where Will I Shelter My Sheep
TTITLE11=Center City mission
TTITLE12=It's Never Too Late
TTITLE13=Everything's Alright
TTITLE14=I'm Ready To Go
TTITLE15=Three Jewels In The Master's Crown
EXTD=
EXTT0=
EXTT1=
EXTT2=
EXTT3=
EXTT4=
EXTT5=
EXTT6=
EXTT7=
EXTT8=
EXTT9=
EXTT10=
EXTT11=
EXTT12=
EXTT13=
EXTT14=
EXTT15=
PLAYORDER=
